<?xml version="1.0" encoding="UTF-8" standalone="no"?>
<!DOCTYPE svg PUBLIC "-//W3C//DTD SVG 1.1//EN" "http://www.w3.org/Graphics/SVG/1.1/DTD/svg11.dtd">
<svg width="100%" height="100%" viewBox="0 0 576 512" version="1.1" xmlns="http://www.w3.org/2000/svg" xmlns:xlink="http://www.w3.org/1999/xlink" xml:space="preserve" style="fill-rule:evenodd;clip-rule:evenodd;stroke-linejoin:round;stroke-miterlimit:1.41421;">
    <path d="M528.1,171.5L382,150.2L316.7,17.8C305,-5.8 271.1,-6.1 259.3,17.8L194,150.2L47.9,171.5C21.7,175.3 11.2,207.6 30.2,226.1L135.9,329.1L110.9,474.6C106.4,500.9 134.1,520.6 157.3,508.3L288,439.6L418.7,508.3C441.9,520.5 469.6,500.9 465.1,474.6L440.1,329.1L545.8,226.1C564.8,207.6 554.3,175.3 528.1,171.5L528.1,171.5ZM388.6,312.3L412.3,450.7L288,385.4L163.7,450.7L187.4,312.3L86.8,214.3L225.8,194.1L288,68.1L350.2,194.1L489.2,214.3L388.6,312.3L388.6,312.3Z" style="fill:rgb(243,156,18);fill-rule:nonzero;"/>
</svg>
